<svg width="66" height="66" fill="none" xmlns="http://www.w3.org/2000/svg"><path d="M7.734 0v7.734H5.801v3.868H21.27V7.734h-1.934V3.867h8.867l3.301 3.3 2.734-2.733L29.805 0H7.735zM46.535 52.338a1.934 1.934 0 003.867-.002c-.017-.593-.821-2.277-1.933-4.15-1.114 1.876-1.919 3.56-1.934 4.152z" fill="#008FDD"/><path d="M58.266 31.066V27.2H38.672v3.867h-3.129c-3.32 6.71-4.605 12.782-4.605 17.403 0 4.616 1.281 10.815 4.605 17.531h25.852C64.715 59.29 66 53.09 66 48.469c0-4.616-1.281-10.686-4.606-17.403h-3.128zm-9.797 27.07a5.807 5.807 0 01-5.801-5.8c0-2.472 2.944-7 4.209-8.833l1.592-2.304 1.592 2.304c1.265 1.833 4.209 6.361 4.209 8.833 0 3.199-2.603 5.8-5.801 5.8zM38.672 11.602h19.594v11.73H38.672v-11.73zM11.602 44.603a1.935 1.935 0 003.867-.001c-.017-.593-.822-2.278-1.934-4.15-1.114 1.876-1.918 3.56-1.933 4.151zM0 58.137h27.07V66H0v-7.863zM0 15.469h27.07v7.863H0v-7.863z" fill="#008FDD"/><path d="M27.07 27.2H0v27.07h27.07V27.2zM13.535 50.401a5.807 5.807 0 01-5.8-5.8c0-2.472 2.943-7 4.208-8.834l1.592-2.303 1.592 2.303c1.265 1.834 4.209 6.362 4.209 8.834 0 3.198-2.602 5.8-5.8 5.8z" fill="#008FDD"/></svg>