<svg width="28" height="30" fill="none" xmlns="http://www.w3.org/2000/svg"><path d="M24.316 12.28V8.596H21.86v3.684h-3.685v2.457h3.685v3.684h2.456v-3.684H28V12.28h-3.684zm-9.456 4.176l-1.351-.983c-.492-.368-.983-.86-.983-1.719 0-.86.614-1.596 1.228-1.965 1.597-1.228 3.193-2.579 3.193-5.28 0-2.58-1.596-4.053-2.456-4.79h2.088L18.053 0h-7.614C5.035 0 2.333 3.439 2.333 7.123c0 2.824 2.21 5.894 6.14 5.894h.983c-.123.369-.491.983-.491 1.597 0 1.228.491 1.719 1.105 2.456-1.72.122-4.912.49-7.245 1.965C.614 20.385 0 22.227 0 23.578c0 2.825 2.579 5.527 8.105 5.527 6.632 0 9.825-3.685 9.825-7.246 0-2.579-1.351-3.93-3.07-5.403zM5.526 5.28c0-2.702 1.597-3.93 3.316-3.93 3.193 0 4.912 4.298 4.912 6.754 0 3.193-2.579 3.807-3.561 3.807-3.07 0-4.667-3.807-4.667-6.631zm4.421 22.104c-4.052 0-6.631-1.842-6.631-4.544 0-2.701 2.456-3.56 3.193-3.93 1.596-.49 3.684-.613 4.052-.613h.86c2.947 2.087 4.175 2.947 4.175 4.912 0 2.333-2.333 4.175-5.649 4.175z" fill="#fff"/></svg>