<svg width="97" height="97" fill="none" xmlns="http://www.w3.org/2000/svg"><g clip-path="url(#clip0)" fill="#008FDD"><path d="M46.106 38.417v-4.58h4.581v4.58h-4.58zM46.778 62.041a2.275 2.275 0 00-.671 1.62v8.59c0 .612.238 1.187.67 1.62.433.433 1.008.67 1.62.67.611 0 1.186-.238 1.62-.67.431-.433.67-1.008.67-1.62v-8.59c0-.612-.238-1.188-.67-1.62a2.275 2.275 0 00-1.62-.671c-.612 0-1.187.238-1.62.671z"/><path d="M54.698 40.421a2 2 0 01-.588 1.419 2 2 0 01-1.418.587h-8.59a2.005 2.005 0 01-2.006-2.005v-6.586H30.284v37.341c0 4.84 1.884 9.388 5.305 12.809a17.975 17.975 0 0010.803 5.195v4.777a2.005 2.005 0 104.01 0v-4.777a17.977 17.977 0 0010.803-5.195 17.997 17.997 0 005.305-12.809V33.836H54.698v6.585zm0 23.24v8.59a6.261 6.261 0 01-1.846 4.456 6.259 6.259 0 01-4.455 1.845 6.26 6.26 0 01-4.455-1.846 6.26 6.26 0 01-1.846-4.455v-8.59a6.26 6.26 0 011.846-4.456 6.26 6.26 0 014.455-1.846c1.683 0 3.266.656 4.456 1.846a6.263 6.263 0 011.845 4.455zM64.505 16.939a2.005 2.005 0 00-2.005 2.005v2.29h-2.433v-2.29a2.006 2.006 0 00-4.01 0v2.29h-2.433v-2.29a2.006 2.006 0 10-4.01 0v2.29H47.18v-2.29a2.005 2.005 0 00-4.01 0l-.001 2.29h-2.433v-2.29a2.004 2.004 0 10-4.01 0v2.29h-2.433v-2.29a2.004 2.004 0 10-4.01 0V29.827l36.226-.001V18.944a2.004 2.004 0 00-2.005-2.005z"/></g><defs><clipPath id="clip0"><path fill="#fff" transform="rotate(-45 58.42 24.198)" d="M0 0h68.444v68.444H0z"/></clipPath></defs></svg>