<svg aria-hidden="true" style="position: absolute; width: 0; height: 0; overflow: hidden;" version="1.1" xmlns="http://www.w3.org/2000/svg" xmlns:xlink="http://www.w3.org/1999/xlink">
<defs>

<symbol id="cleanser" viewBox="0 0 32 32">
<path d="M3.75 0v3.75h-0.937v1.875h7.5v-1.875h-0.938v-1.875h4.299l1.601 1.6 1.326-1.325-2.149-2.15h-10.701zM22.562 25.376c0.012 0.508 0.427 0.916 0.937 0.916s0.926-0.408 0.937-0.916l0-0.001c-0.008-0.288-0.398-1.104-0.937-2.012-0.54 0.91-0.93 1.726-0.938 2.013z"></path>
<path d="M28.25 15.062v-1.874h-9.5v1.875h-1.517c-1.61 3.253-2.233 6.197-2.233 8.438 0 2.238 0.621 5.244 2.233 8.5h12.534c1.61-3.254 2.233-6.26 2.233-8.5 0-2.238-0.621-5.181-2.233-8.438h-1.517zM23.5 28.187c-1.553-0.002-2.811-1.26-2.813-2.812v-0c0-1.199 1.427-3.394 2.041-4.283l0.772-1.117 0.772 1.117c0.613 0.889 2.041 3.084 2.041 4.283 0 1.551-1.262 2.812-2.813 2.812zM18.75 5.625h9.5v5.687h-9.5v-5.687zM5.625 21.626c0.021 0.502 0.432 0.901 0.937 0.901s0.917-0.399 0.937-0.9l0-0.002c-0.008-0.288-0.399-1.105-0.938-2.012-0.54 0.91-0.93 1.726-0.937 2.013zM0 28.188h13.125v3.812h-13.125v-3.812zM0 7.5h13.125v3.812h-13.125v-3.812z"></path>
<path d="M13.125 13.188h-13.125v13.125h13.125v-13.125zM6.562 24.437c-1.552-0.002-2.81-1.26-2.812-2.812v-0c0-1.199 1.427-3.394 2.040-4.283l0.772-1.117 0.772 1.117c0.613 0.889 2.041 3.085 2.041 4.283 0 1.551-1.262 2.812-2.812 2.812z"></path>
</symbol>

<symbol id="facebook" viewBox="0 0 16 32">
<path d="M13.079 5.314h2.921v-5.088c-0.504-0.070-2.237-0.226-4.256-0.226-4.211 0-7.096 2.649-7.096 7.518v4.482h-4.648v5.688h4.648v14.312h5.698v-14.311h4.459l0.708-5.688h-5.169v-3.919c0.002-1.644 0.444-2.769 2.734-2.769z"></path>
</symbol>

<symbol id="google" viewBox="0 0 30 32">
<path d="M25.937 13.099v-3.93h-2.62v3.93h-3.931v2.621h3.931v3.93h2.62v-3.93h3.93v-2.621h-3.93zM15.851 17.553l-1.441-1.049c-0.525-0.393-1.049-0.917-1.049-1.834 0-0.917 0.655-1.702 1.31-2.096 1.703-1.31 3.406-2.751 3.406-5.632 0-2.752-1.702-4.323-2.62-5.109h2.227l1.572-1.834h-8.122c-5.764 0-8.646 3.668-8.646 7.598 0 3.012 2.357 6.287 6.549 6.287h1.049c-0.131 0.394-0.524 1.049-0.524 1.703 0 1.31 0.524 1.834 1.179 2.62-1.835 0.13-5.239 0.523-7.728 2.096-2.358 1.44-3.013 3.405-3.013 4.846 0 3.013 2.751 5.895 8.645 5.895 7.074 0 10.48-3.931 10.48-7.729 0-2.751-1.441-4.192-3.275-5.763zM5.894 5.632c0-2.882 1.703-4.192 3.537-4.192 3.406 0 5.239 4.585 5.239 7.204 0 3.406-2.751 4.061-3.798 4.061-3.275 0-4.978-4.061-4.978-7.073zM10.61 29.21c-4.322 0-7.073-1.965-7.073-4.847 0-2.881 2.62-3.797 3.406-4.192 1.702-0.523 3.93-0.654 4.322-0.654h0.917c3.143 2.226 4.453 3.143 4.453 5.239 0 2.489-2.489 4.453-6.026 4.453z"></path>
</symbol>

<symbol id="notification" viewBox="0 0 32 32">
<path fill="#99baed" style="fill: var(--color3, #99baed)" d="M26.36 15.528c-0.974-1.138-1.417-2.123-1.417-3.798v-0.569c0-2.182-0.502-3.589-1.594-4.994-1.683-2.184-4.516-3.499-7.29-3.499h-0.117c-2.715 0-5.46 1.256-7.172 3.35-1.152 1.435-1.712 2.901-1.712 5.143v0.57c0 1.675-0.414 2.661-1.417 3.797-0.738 0.838-0.974 1.915-0.974 3.080 0 1.167 0.383 2.273 1.151 3.171 0.985 1.048 2.334 1.743 3.844 1.882l0.024 0.002c2.095 0.238 4.19 0.328 6.315 0.328 2.124 0 4.219-0.15 6.316-0.328 1.533-0.142 2.881-0.837 3.862-1.881l0.003-0.003c0.767-0.899 1.151-2.004 1.151-3.171 0-1.166-0.236-2.242-0.974-3.080z"></path>
<path fill="#aeaeae" style="fill: var(--color4, #aeaeae)" opacity="0.4" d="M18.678 25.638c-0.667-0.142-4.728-0.142-5.394 0-0.57 0.131-1.186 0.437-1.186 1.109 0.033 0.64 0.408 1.205 0.928 1.564l-0.002 0.002c0.634 0.499 1.411 0.845 2.259 0.972l0.027 0.003c0.44 0.061 0.888 0.059 1.344 0 0.874-0.13 1.65-0.477 2.295-0.983l-0.010 0.008-0.002-0.002c0.52-0.358 0.894-0.924 0.928-1.564 0-0.672-0.616-0.978-1.186-1.109z"></path>
<path fill="#ff5050" style="fill: var(--color5, #ff5050); stroke: var(--color2, #fff)" stroke="#fff" stroke-linejoin="miter" stroke-linecap="butt" stroke-miterlimit="4" stroke-width="0.7619" d="M28.588 5.662c0.052 3.347-2.619 6.101-5.966 6.153s-6.101-2.619-6.153-5.966c-0.052-3.347 2.619-6.101 5.966-6.153s6.101 2.619 6.153 5.966z"></path>
<path fill="#fff" style="fill: var(--color2, #fff)" d="M22.381 3.994c-0.542 0.002-1.048 0.158-1.476 0.426l0.012-0.007 0.187 0.789c0.448-0.266 0.845-0.402 1.19-0.407 0.254-0.004 0.456 0.043 0.604 0.143 0.142 0.083 0.236 0.235 0.236 0.409 0 0.005-0 0.010-0 0.014l0-0.001c0.002 0.147-0.056 0.306-0.175 0.475s-0.309 0.368-0.57 0.595l-1.519 1.334 0.011 0.663 3.368-0.052-0.104-0.753-1.928 0.030 0.715-0.613c0.386-0.335 0.655-0.625 0.81-0.866 0.153-0.242 0.228-0.53 0.222-0.865-0-0.254-0.075-0.49-0.204-0.688l0.003 0.005c-0.13-0.201-0.312-0.358-0.549-0.472s-0.513-0.168-0.833-0.162z"></path>
</symbol>

<symbol id="profile" viewBox="0 0 32 32">
<path fill="#99baed" style="fill: var(--color3, #99baed)" d="M15.995 20.232c-5.75 0-10.662 0.907-10.662 4.533 0 3.628 4.881 4.567 10.662 4.567 5.751 0 10.663-0.905 10.663-4.533s-4.88-4.567-10.663-4.567z"></path>
<path fill="#a4a4a4" style="fill: var(--color6, #a4a4a4)" opacity="0.4" d="M15.995 16.778c0.007 0 0.016 0 0.025 0 3.883 0 7.031-3.148 7.031-7.031 0-0.009 0-0.017-0-0.026v0.001c0-3.916-3.139-7.056-7.055-7.056-0.007-0-0.016-0-0.024-0-3.884 0-7.032 3.149-7.032 7.032 0 0.008 0 0.016 0 0.024v-0.001c-0 0.007-0 0.016-0 0.024 0 3.883 3.148 7.032 7.032 7.032 0.009 0 0.017 0 0.026-0h-0.001z"></path>
</symbol>

<symbol id="razor" viewBox="0 0 32 32">
<path d="M15.21 12.674v-1.511h1.511v1.511h-1.511zM15.432 20.467c-0.137 0.136-0.221 0.324-0.221 0.532 0 0.001 0 0.002 0 0.002v-0 2.834c0 0.202 0.079 0.392 0.221 0.534s0.333 0.221 0.534 0.221c0.202 0 0.391-0.078 0.534-0.221 0.142-0.143 0.221-0.333 0.221-0.534v-2.834c0-0.202-0.078-0.392-0.221-0.534-0.136-0.137-0.324-0.221-0.532-0.221-0.001 0-0.002 0-0.002 0h0c-0.202 0-0.392 0.078-0.534 0.221z"></path>
<path d="M18.045 13.335c0 0 0 0.001 0 0.001 0 0.183-0.074 0.348-0.194 0.467l-0 0c-0.119 0.12-0.285 0.194-0.467 0.194-0 0-0.001 0-0.001 0h-2.834c-0 0-0 0-0 0-0.365 0-0.661-0.296-0.661-0.661v0-2.173h-3.897v12.319c0 1.597 0.622 3.097 1.75 4.226 0.927 0.932 2.161 1.557 3.537 1.711l0.027 0.002v1.576c0 0.365 0.296 0.661 0.661 0.661s0.661-0.296 0.661-0.661v-1.576c1.403-0.157 2.637-0.782 3.564-1.714l0-0c1.081-1.075 1.75-2.564 1.75-4.209 0-0.006 0-0.011-0-0.017v0.001-12.319h-3.897v2.172zM18.045 21.002v2.834c0 0.002 0 0.004 0 0.005 0 0.572-0.233 1.090-0.609 1.464l-0 0c-0.374 0.376-0.892 0.609-1.464 0.609-0.002 0-0.004 0-0.006 0h0c-0.002 0-0.003 0-0.005 0-0.572 0-1.090-0.233-1.464-0.609l-0-0c-0.376-0.374-0.609-0.892-0.609-1.464 0-0.002 0-0.004 0-0.006v0-2.834c0-0.002 0-0.004 0-0.006 0-0.572 0.233-1.090 0.609-1.464l0-0c0.374-0.376 0.892-0.609 1.464-0.609 0.002 0 0.004 0 0.006 0h-0c0.555 0 1.077 0.216 1.47 0.609 0.376 0.374 0.609 0.892 0.609 1.464 0 0.002 0 0.004 0 0.006v-0zM21.28 5.588c-0.365 0-0.661 0.296-0.661 0.661v0 0.755h-0.803v-0.755c-0.012-0.356-0.303-0.641-0.661-0.641s-0.65 0.285-0.661 0.64l-0 0.001v0.755h-0.803v-0.755c0-0.006 0-0.014 0-0.021 0-0.365-0.296-0.662-0.662-0.662s-0.662 0.296-0.662 0.662c0 0.007 0 0.015 0 0.022l-0-0.001v0.755h-0.803v-0.755c0-0.365-0.296-0.661-0.661-0.661s-0.661 0.296-0.661 0.661v0l-0 0.755h-0.803v-0.755c0-0.365-0.296-0.661-0.661-0.661s-0.661 0.296-0.661 0.661v0 0.755h-0.803v-0.755c0-0.365-0.296-0.661-0.661-0.661s-0.661 0.296-0.661 0.661v0 3.59l11.951-0v-3.59c0-0 0-0 0-0 0-0.365-0.296-0.661-0.661-0.661-0 0-0 0-0 0h0z"></path>
</symbol>

<symbol id="scissors" viewBox="0 0 31 32">
<path d="M15.536 1.886c-1.945 0.17-3.423 1.888-3.253 3.833l0.875 10.003-3.309 1.543c-1.108-1.926-3.525-2.716-5.576-1.759-2.166 1.010-3.103 3.585-2.093 5.751s3.584 3.103 5.751 2.093c1.408-0.667 2.387-2.034 2.49-3.64l0.001-0.013 4.053-1.89 0.39 4.455c-1.173 0.787-1.935 2.107-1.935 3.606 0 0.133 0.006 0.265 0.018 0.394l-0.001-0.017c0.208 2.381 2.307 4.142 4.688 3.934s4.142-2.307 3.934-4.688c-0.197-2.255-2.090-3.952-4.312-3.949l-0.318-3.638 9.1-4.243c1.77-0.825 2.518-2.965 1.693-4.734l-11.124 5.188-1.070-12.228zM8.057 20.545c-0.395 0.675-1.117 1.122-1.943 1.122-1.239 0-2.243-1.004-2.243-2.243 0-0.413 0.112-0.8 0.306-1.132l-0.006 0.011c0.395-0.675 1.117-1.122 1.943-1.122 1.239 0 2.243 1.004 2.243 2.243 0 0.413-0.112 0.8-0.306 1.132l0.006-0.011zM19.196 26.976c-0.395 0.675-1.117 1.122-1.943 1.122-1.239 0-2.243-1.004-2.243-2.243 0-0.413 0.112-0.8 0.306-1.132l-0.006 0.011c0.395-0.675 1.117-1.122 1.943-1.122 1.239 0 2.243 1.004 2.243 2.243 0 0.413-0.112 0.8-0.306 1.132l0.006-0.011z"></path>
</symbol>

<symbol id="twitter" viewBox="0 0 39 32">
<path d="M39.006 3.751c-1.45 0.636-2.996 1.058-4.607 1.263 1.657-0.995 2.902-2.533 3.502-4.362l0.016-0.056c-1.46 0.881-3.159 1.552-4.968 1.918l-0.102 0.017c-1.463-1.561-3.537-2.534-5.839-2.534-4.415 0-7.994 3.579-7.994 7.994 0 0.003 0 0.006 0 0.009v-0c0 0.634 0.054 1.243 0.185 1.824-6.647-0.325-12.529-3.511-16.481-8.364-0.686 1.158-1.093 2.552-1.095 4.041v0.001c0.003 2.758 1.4 5.19 3.524 6.628l0.028 0.018c-1.331-0.037-2.57-0.398-3.652-1.006l0.040 0.021v0.087c0 3.887 2.772 7.114 6.406 7.857-0.61 0.167-1.311 0.264-2.034 0.264-0.022 0-0.043-0-0.065-0l0.003 0c-0.512 0-1.029-0.030-1.514-0.135 1.035 3.166 3.975 5.494 7.471 5.569-2.699 2.126-6.148 3.41-9.897 3.41-0.006 0-0.012 0-0.017 0h0.001c-0.656 0-1.285-0.028-1.914-0.11 3.445 2.25 7.664 3.589 12.195 3.589 0.025 0 0.051-0 0.076-0h-0.004c14.715 0 22.761-12.19 22.761-22.756 0-0.353-0.012-0.694-0.030-1.034 1.583-1.142 2.914-2.519 3.971-4.094l0.036-0.057z"></path>
</symbol>
</defs>

</svg>
