<svg width="32" height="26" fill="none" xmlns="http://www.w3.org/2000/svg"><path d="M31.692 3.048c-1.178.517-2.434.86-3.743 1.026a6.46 6.46 0 002.858-3.59 12.985 12.985 0 01-4.12 1.572 6.495 6.495 0 00-11.239 4.443c0 .515.044 1.01.15 1.482-5.401-.264-10.18-2.853-13.391-6.796a6.541 6.541 0 00-.89 3.284 6.507 6.507 0 002.886 5.4 6.416 6.416 0 01-2.935-.801v.071c0 3.158 2.252 5.78 5.205 6.384a6.484 6.484 0 01-1.703.214c-.416 0-.836-.024-1.23-.11.841 2.572 3.23 4.464 6.07 4.525a13.054 13.054 0 01-8.055 2.771c-.533 0-1.044-.023-1.555-.089a18.291 18.291 0 009.967 2.916c11.956 0 18.493-9.904 18.493-18.489 0-.287-.01-.564-.024-.84a12.962 12.962 0 003.256-3.373z" fill="#fff"/></svg>